{"title":"Scream the TV Series S01E02 720p HDTV EN-SUB x264-[MULVAcoded]","uid":12103390,"size":211593047,"categoryP":"video","categoryS":"hd___tv_shows","magnet":"?xt=urn:btih:950304d794f80540df2545fc8186aaefdb7f94a2&amp;dn=Scream+the+TV+Series+S01E02+720p+HDTV+EN-SUB+x264-%5BMULVAcoded%5D&amp;tr=udp%3A%2F%2Ftracker.openbittorrent.com%3A80&amp;tr=udp%3A%2F%2Fopen.demonii.com%3A1337&amp;tr=udp%3A%2F%2Ftracker.coppersurfer.tk%3A6969&amp;tr=udp%3A%2F%2Fexodus.desync.com%3A6969","seeders":0,"leechers":0,"uploader":"Mulva1989","files":2,"time":1436388671,"description":"Scream the TV Series S01E02 720p HDTV EN-SUB x264-[MULVAcoded]\n\nThe death of another teen raises questions and leads to a rift between Emma and Audrey. A podcaster arrives in town to report on the past and present murders.\n\nScreens @ &lt;a href=&quot;\nhttp://extraimago.com/images/2015/07/08/Scream.the.TV.Series.S01E02.720p.HDTV.EN-SUB.x264-MULVAcoded.mp4_snapshot_05.26_2015.07.08_15.08.17.jpg&quot; rel=&quot;nofollow&quot; target=&quot;_NEW&quot;&gt;\nhttp://extraimago.com/images/2015/07/08/Scream.the.TV.Series.S01E02.720p.HDTV.EN-SUB.x264-MULVAcoded.mp4_snapshot_05.26_2015.07.08_15.08.17.jpg&lt;/a&gt;\n &lt;a href=&quot;\nhttp://extraimago.com/images/2015/07/08/Scream.the.TV.Series.S01E02.720p.HDTV.EN-SUB.x264-MULVAcoded.mp4.jpg&quot; rel=&quot;nofollow&quot; target=&quot;_NEW&quot;&gt;\nhttp://extraimago.com/images/2015/07/08/Scream.the.TV.Series.S01E02.720p.HDTV.EN-SUB.x264-MULVAcoded.mp4.jpg&lt;/a&gt;\n\nFormat : MPEG-4\nFormat profile : Base Media\nCodec ID : isom\nFile size : 202 MiB\nDuration : 39mn 9s\nOverall bit rate mode : Variable\nOverall bit rate : 720 Kbps\nEncoded date : UTC 2015-07-08 18:25:04\nTagged date : UTC 2015-07-08 18:25:04\n\nVideo\nID : 2\nFormat : AVC\nFormat/Info : Advanced Video Codec\nFormat profile : &lt;a class=&quot;__cf_email__&quot; href=&quot;/cdn-cgi/l/email-protection&quot; data-cfemail=&quot;bff7d6d8d7fff38a918f&quot;&gt;[email&amp;#160;protected]&lt;/a&gt;&lt;script data-cfhash='f9e31' type=&quot;text/javascript&quot;&gt;\n/* &lt;![CDATA[ */!function(){try{var t=&quot;currentScript&quot;in document?document.currentScript:function(){for(var t=document.getElementsByTagName(&quot;script&quot;),e=t.length;e--;)if(t[e].getAttribute(&quot;data-cfhash&quot;))return t[e]}();if(t&amp;&amp;t.previousSibling){var e,r,n,i,c=t.previousSibling,a=c.getAttribute(&quot;data-cfemail&quot;);if(a){for(e=&quot;&quot;,r=parseInt(a.substr(0,2),16),n=2;a.length-n;n+=2)i=parseInt(a.substr(n,2),16)^r,e+=String.fromCharCode(i);e=document.createTextNode(e),c.parentNode.replaceChild(e,c)}t.parentNode.removeChild(t);}}catch(u){}}()/* ]]&gt; */&lt;/script&gt;\nFormat settings, CABAC : Yes\nFormat settings, ReFrames : 16 frames\nCodec ID : avc1\nCodec ID/Info : Advanced Video Coding\nDuration : 39mn 9s\nBit rate : 620 Kbps\nMaximum bit rate : 2 683 Kbps\nWidth : 1 280 pixels\nHeight : 720 pixels\nDisplay aspect ratio : 16:9\nFrame rate mode : Variable\nFrame rate : 23.976 fps\nMinimum frame rate : 23.974 fps\nMaximum frame rate : 23.981 fps\nColor space : YUV\nChroma subsampling : 4:2:0\nBit depth : 8 bits\nScan type : Progressive\nBits/(Pixel*Frame) : 0.028\nStream size : 174 MiB (86%)\nWriting library : x264 core 130 r2273 b3065e6\nEncoding settings : cabac=1 / ref=16 / deblock=1:0:0 / analyse=0x3:0x113 / me=umh / subme=8 / psy=1 / psy_rd=1.00:0.00 / mixed_ref=1 / me_range=16 / chroma_me=1 / trellis=1 / 8x8dct=1 / cqm=0 / deadzone=21,11 / fast_pskip=1 / chroma_qp_offset=-2 / threads=6 / lookahead_threads=3 / sliced_threads=0 / nr=0 / decimate=1 / interlaced=0 / bluray_compat=0 / constrained_intra=0 / bframes=16 / b_pyramid=2 / b_adapt=2 / b_bias=0 / direct=3 / weightb=1 / open_gop=0 / weightp=2 / keyint=240 / keyint_min=24 / scenecut=40 / intra_refresh=0 / rc_lookahead=50 / rc=crf / mbtree=1 / crf=28.0 / qcomp=0.60 / qpmin=0 / qpmax=69 / qpstep=4 / ip_ratio=1.40 / aq=1:1.00\nEncoded date : UTC 2015-07-08 08:42:05\nTagged date : UTC 2015-07-08 18:25:07\nColor primaries : BT.709\nTransfer characteristics : BT.709\nMatrix coefficients : BT.709\nColor range : Limited\n\nAudio\nID : 1\nFormat : AAC\nFormat/Info : Advanced Audio Codec\nFormat profile : LC\nCodec ID : 40\nDuration : 39mn 9s\nBit rate mode : Variable\nBit rate : 96.0 Kbps\nMaximum bit rate : 123 Kbps\nChannel(s) : 2 channels\nChannel positions : Front: L R\nSampling rate : 48.0 KHz\nCompression mode : Lossy\nStream size : 26.9 MiB (13%)\nEncoded date : UTC 2015-07-08 18:25:04\nTagged date : UTC 2015-07-08 18:25:07\n\nText\nID : 3\nFormat : Timed Text\nMuxing mode : sbtl\nCodec ID : tx3g\nDuration : 38mn 59s\nBit rate mode : Variable\nBit rate : 99 bps\nStream size : 28.1 KiB (0%)\nTitle : srt.srt:hdlr=sbtl:lang=en:group=2:layer=-1 - Imported with GPAC 0.5.0-rev\nLanguage : English\nEncoded date : UTC 2015-07-08 18:25:07\nTagged date : UTC 2015-07-08 18:25:07","torrent":{"xt":"urn:btih:950304d794f80540df2545fc8186aaefdb7f94a2","amp;dn":"Scream+the+TV+Series+S01E02+720p+HDTV+EN-SUB+x264-%5BMULVAcoded%5D","amp;tr":["udp%3A%2F%2Ftracker.openbittorrent.com%3A80","udp%3A%2F%2Fopen.demonii.com%3A1337","udp%3A%2F%2Ftracker.coppersurfer.tk%3A6969","udp%3A%2F%2Fexodus.desync.com%3A6969"],"infoHash":"950304d794f80540df2545fc8186aaefdb7f94a2","infoHashBuffer":{"type":"Buffer","data":[149,3,4,215,148,248,5,64,223,37,69,252,129,134,170,239,219,127,148,162]},"announce":[],"urlList":[]}}